<?xml version="1.0" encoding="UTF-8"?>
<svg version="1.1" xmlns="http://www.w3.org/2000/svg" width="1066" height="1476">
<path d="M0 0 C0.74765625 0.41378906 1.4953125 0.82757813 2.265625 1.25390625 C11.37986759 6.79186491 16.43388694 14.80883114 19.58984375 24.8828125 C21.42052509 34.33261524 20.45299382 44.3867999 15.3828125 52.62890625 C13.64422469 55.13232346 11.82916893 57.56250654 10 60 C9.26166234 61.18181969 8.53070644 62.36833929 7.8125 63.5625 C6 66 6 66 4.30859375 66.421875 C0.97826657 67.25586556 -1.79836597 68.98767838 -4.75 70.6875 C-5.43465332 71.07687744 -6.11930664 71.46625488 -6.82470703 71.86743164 C-14.23849032 76.1002847 -21.59949734 80.42572254 -28.96020508 84.75 C-33.77458151 87.57048957 -38.60016002 90.35300575 -43.50390625 93.015625 C-44.34131348 93.47074463 -45.1787207 93.92586426 -46.04150391 94.39477539 C-47.60039401 95.23585172 -49.1636894 96.06883057 -50.73193359 96.89233398 C-54.91948213 98.97927128 -54.91948213 98.97927128 -57 103 C-57.886875 103.226875 -58.77375 103.45375 -59.6875 103.6875 C-64.4799782 105.58640646 -66.34335864 108.70907646 -69 113 C-69.41765625 113.64839844 -69.8353125 114.29679687 -70.265625 114.96484375 C-74.40984968 122.56745311 -74.32990798 132.46002829 -72.33984375 140.75 C-71.42017452 143.0432012 -70.37720182 144.95059254 -69 147 C-68.525625 147.70640625 -68.05125 148.4128125 -67.5625 149.140625 C-62.81691437 155.3007602 -56.71354477 159.16581706 -48.93652344 160.30126953 C-46.64681589 160.54189479 -44.35694057 160.74738989 -42.0625 160.9375 C-31.78309137 161.8126835 -23.83101201 164.66387951 -16.5 172.25 C-10.99224732 179.0173219 -7.5994348 187.73196397 -7.71484375 196.51953125 C-9.03488605 208.00209097 -14.04273724 217.73598162 -23 225 C-30.18739752 229.30800868 -35.836917 231.12161117 -44.20925903 231.13803101 C-45.3002359 231.14226293 -45.3002359 231.14226293 -46.41325271 231.14658034 C-48.8511962 231.15491534 -51.28909421 231.15626366 -53.72705078 231.15771484 C-55.47494128 231.16238398 -57.22283057 231.16752771 -58.97071838 231.17311096 C-62.73625703 231.18438849 -66.50178777 231.19282445 -70.2673378 231.19923019 C-76.22691029 231.20991814 -82.18642617 231.23016619 -88.14596558 231.25234985 C-105.09337768 231.31424395 -122.04078669 231.36824685 -138.98828125 231.40136719 C-148.34720807 231.4197375 -157.70604022 231.44870492 -167.06489742 231.4893719 C-172.01491907 231.51040371 -176.96482161 231.52589373 -181.91489029 231.52817917 C-186.57544744 231.53033344 -191.23575675 231.54628204 -195.89623833 231.57256889 C-197.60133813 231.57973409 -199.30646806 231.58187642 -201.01157951 231.57846642 C-215.1847018 231.5546616 -226.36658531 233.01607155 -237.12890625 242.96875 C-245.12745871 251.34674044 -248.83483521 261.0569167 -252.1796875 271.9140625 C-252.45288818 272.7903833 -252.72608887 273.6667041 -253.00756836 274.56958008 C-253.67499333 276.71205803 -254.33905039 278.85551738 -255 281 C-254.41805333 281.00059709 -253.83610666 281.00119418 -253.23652524 281.00180936 C-218.7233668 281.03772596 -184.21030611 281.09439967 -149.69722975 281.17792095 C-145.55051355 281.18793806 -141.40379695 281.19778225 -137.25708008 281.20751953 C-136.01880776 281.21043159 -136.01880776 281.21043159 -134.75551984 281.21340248 C-121.39987815 281.24439901 -108.04425362 281.26139657 -94.68858274 281.27319422 C-80.97804027 281.28561795 -67.26758772 281.31314691 -53.55710202 281.35461307 C-45.10124555 281.37971354 -36.64553827 281.3931198 -28.18964402 281.39142957 C-22.38618675 281.39139975 -16.58288112 281.40608073 -10.77948298 281.43216428 C-7.43423604 281.44677032 -4.0895604 281.45286282 -0.74424934 281.44580269 C2.89123377 281.43915318 6.52581658 281.4571084 10.16120911 281.48101807 C11.20696053 281.47325765 12.25271195 281.46549723 13.33015281 281.45750165 C23.42006265 281.57455161 31.98135671 284.13042145 39.3515625 291.21484375 C46.44984491 298.90184627 48.97117413 307.69475234 49 318 C48.30028919 328.02411798 43.31614128 336.62755509 36.05859375 343.46484375 C29.27330668 348.52483961 21.42724518 351.12263507 13.01303959 351.12749195 C12.02795038 351.1304996 11.04286118 351.13350725 10.02792078 351.13660604 C8.41587146 351.13398048 8.41587146 351.13398048 6.77125549 351.13130188 C5.62373855 351.13341759 4.47622161 351.13553331 3.29393142 351.13771313 C0.11295917 351.14266751 -3.0679792 351.14321124 -6.24895394 351.14197242 C-9.68119196 351.14175694 -13.11342067 351.14733648 -16.5456543 351.15237427 C-22.49220713 351.16048182 -28.43875569 351.16542917 -34.38531303 351.16866493 C-43.78416115 351.17416492 -53.18297305 351.19106524 -62.58180237 351.21000671 C-65.79797643 351.21636316 -69.01415059 351.22267161 -72.23032475 351.22898388 C-73.03404214 351.23056764 -73.83775953 351.2321514 -74.66583199 351.23378316 C-83.81180532 351.25171481 -92.9577812 351.26794432 -102.10375977 351.28295898 C-102.93972115 351.28433486 -103.77568253 351.28571073 -104.63697607 351.28712829 C-118.18967576 351.30906749 -131.74236611 351.31981716 -145.29508042 351.32732973 C-159.21028234 351.33539881 -173.12540413 351.35868081 -187.04056031 351.3952834 C-195.62344868 351.41731368 -204.20617232 351.42697148 -212.78908754 351.42078307 C-218.66954283 351.41761013 -224.54985733 351.42892757 -230.43026906 351.45167748 C-233.82346907 351.46435261 -237.21635546 351.47050651 -240.60956764 351.45926094 C-244.28812287 351.45041897 -247.96578904 351.4659925 -251.64427185 351.48774719 C-252.71674067 351.47930466 -253.7892095 351.47086212 -254.89417738 351.46216375 C-260.87970133 351.52779982 -264.46720388 351.94903031 -269 356 C-269.93187688 357.9653211 -269.93187688 357.9653211 -269.875 360.1875 C-269.9059375 361.05761719 -269.936875 361.92773438 -269.96875 362.82421875 C-269.98421875 364.39623047 -269.98421875 364.39623047 -270 366 C-270.07039256 367.36081 -270.14349489 368.7214815 -270.21875 370.08203125 C-270.62871049 379.64884351 -270.06980833 386.97777103 -263.6484375 394.60546875 C-255.27739206 402.57900644 -243.36000916 401.42102752 -232.70532227 401.36889648 C-230.95669316 401.3713674 -229.20806555 401.37520876 -227.45944214 401.38031006 C-223.70758169 401.38862 -219.95587319 401.38786438 -216.20401192 401.38012505 C-210.26500102 401.36849956 -204.3261838 401.38074006 -198.38719177 401.39674377 C-183.63802239 401.43286469 -168.88885806 401.43916946 -154.13964844 401.43664551 C-142.67028138 401.43493241 -131.20107351 401.44210506 -119.73175091 401.47662407 C-113.83437764 401.49337425 -107.93739348 401.49166141 -102.04002202 401.47580135 C-98.36404106 401.46998604 -94.68824285 401.48077718 -91.01229477 401.49604797 C-89.31524046 401.4997598 -87.61815492 401.49670802 -85.92112923 401.48617744 C-73.79801841 401.41599528 -63.9247177 402.40753963 -54.75390625 411.078125 C-46.75473069 419.8433686 -45.41226876 429.38348782 -45.69140625 440.828125 C-46.15309019 449.37215152 -49.52155427 455.1640404 -55.4140625 461.2109375 C-57.09443278 462.94658736 -57.09443278 462.94658736 -58.07421875 465.19140625 C-58.37972656 465.78824219 -58.68523437 466.38507813 -59 467 C-61.1875 467.5625 -61.1875 467.5625 -64 468 C-65.54530396 468.69935669 -65.54530396 468.69935669 -67.12182617 469.4128418 C-71.26802252 471.2317192 -75.42392486 472.03701565 -79.86328125 472.83203125 C-81.57239392 473.15883498 -83.28137437 473.48633079 -84.99023438 473.81445312 C-87.64793489 474.31593838 -90.30636813 474.81138752 -92.9675293 475.29418945 C-110.89792191 478.55862432 -110.89792191 478.55862432 -124.75 489.89453125 C-129.65384603 498.1544469 -131.63730765 507.44157105 -129.3046875 516.78515625 C-124.49832138 531.4667872 -114.44484427 537.19117198 -101.5625 544.375 C-75.31046612 559.23634503 -51.35431483 574.64568517 -30 596 C-29.4121875 596.54140625 -28.824375 597.0828125 -28.21875 597.640625 C-17.15958422 607.99602568 -8.37739952 621.02918215 -1.01318359 634.19677734 C-0.0268118 635.95228146 0.99206369 637.68939778 2.01171875 639.42578125 C11.27248807 655.54998837 17.71940352 673.71663101 21 692 C21.17901855 692.90427734 21.35803711 693.80855469 21.54248047 694.74023438 C36.9681961 774.56343119 17.7818492 867.90660031 -27 935.375 C-36.18647619 948.92217366 -46.10467578 961.78657993 -57 974 C-57.51626953 974.57943359 -58.03253906 975.15886719 -58.56445312 975.75585938 C-63.70977458 981.50051196 -68.85069233 987.2116479 -74.7890625 992.15625 C-76.52150314 993.60097081 -78.21745136 995.0894713 -79.8984375 996.59375 C-101.52140489 1015.8707682 -126.71788185 1029.89335729 -152.359375 1043.07421875 C-157.91577455 1045.93750448 -163.39944804 1048.92313617 -168.875 1051.9375 C-176.69451833 1056.23605557 -184.57232995 1060.40445286 -192.5 1064.5 C-201.08185929 1068.93517082 -209.5941501 1073.47409298 -218.05859375 1078.12890625 C-227.39120999 1083.24593732 -236.80630504 1088.2042811 -246.21939087 1093.17105103 C-256.25734051 1098.46911626 -266.26380648 1103.81519024 -276.203125 1109.296875 C-288.47635319 1116.05314719 -298.59229315 1120.90062443 -313 1118 C-322.99031663 1114.60651031 -330.71125251 1108.11086116 -335.5 1098.75 C-340.19452515 1088.68285162 -340.70058557 1077.71419432 -337.0625 1067.1875 C-330.71977411 1052.64389754 -317.93929288 1045.85746619 -304.5625 1038.75 C-302.42671173 1037.60355659 -300.29129808 1036.45641504 -298.15625 1035.30859375 C-297.11082031 1034.74769043 -296.06539063 1034.18678711 -294.98828125 1033.60888672 C-288.67394467 1030.20925616 -282.39983493 1026.73915292 -276.15429688 1023.21484375 C-274.67052615 1022.37812082 -273.18472357 1021.54499416 -271.69726562 1020.71484375 C-259.03951661 1013.62988816 -250.09164221 1008.26501413 -245 994 C-242.71498726 985.26400616 -244.05338223 976.01564543 -248.49609375 968.21875 C-253.28025487 961.16055905 -258.64702573 957.02590794 -267 955 C-270.01275655 954.57601936 -273.03358781 954.28263662 -276.0625 954 C-287.89545281 952.89493012 -295.49428533 949.31681676 -303.50390625 940.30859375 C-309.36640259 932.76609846 -310.95783708 924.39212473 -310 915 C-308.1497221 904.85430953 -303.13128976 896.34713758 -295.41796875 889.5703125 C-286.06234486 883.4944469 -277.43146209 883.42950053 -266.59765625 883.48583984 C-264.83754871 883.48037324 -263.07744593 883.47312844 -261.31735229 883.46424866 C-257.54090262 883.44895743 -253.76472444 883.44609049 -249.98825073 883.45301437 C-244.01167253 883.46383488 -238.03537614 883.44637866 -232.05883789 883.42520142 C-222.60315813 883.39498302 -213.14756231 883.38325068 -203.69183826 883.37962496 C-186.76341402 883.37297178 -169.83504823 883.34388128 -152.90669537 883.2945286 C-146.97067121 883.27807171 -141.03476912 883.27260589 -135.09872437 883.27611899 C-131.40099264 883.27655733 -127.70330667 883.26897244 -124.00558853 883.25944328 C-122.29682729 883.25677031 -120.58805668 883.25749545 -118.87929916 883.26195335 C-104.50981144 883.29683638 -90.84897145 882.29287708 -79.7734375 871.9453125 C-69.03372137 860.16474283 -63.95256085 845.90499163 -59 831 C-59.77771916 831.07083077 -60.55543833 831.14166155 -61.35672474 831.21463871 C-74.32880081 832.24528189 -87.29217492 832.136337 -100.29760742 832.11694336 C-102.26591116 832.11670319 -104.23421494 832.11647061 -106.20251866 832.11675035 C-114.75967055 832.11795372 -123.31678872 832.10732907 -131.8739278 832.09343871 C-134.10380968 832.08984642 -136.33369179 832.0864644 -138.56357408 832.0831368 C-152.44943293 832.06221004 -166.33528011 832.03715944 -180.22111034 832.00185299 C-183.42369257 831.99377425 -186.62627491 831.98574502 -189.82885742 831.9777832 C-190.62469316 831.97580095 -191.4205289 831.9738187 -192.24048088 831.97177637 C-205.15156269 831.94028865 -218.06254387 831.9329316 -230.97365924 831.93524688 C-244.26322041 831.9372027 -257.5526002 831.91656928 -270.8420952 831.87423426 C-278.29041599 831.85108645 -285.73846486 831.83782092 -293.18681908 831.85014153 C-299.52356459 831.86058216 -305.8598675 831.85059757 -312.19652506 831.81435167 C-315.42464751 831.79650999 -318.65188643 831.79137322 -321.88004684 831.80606651 C-348.00283785 831.91332949 -348.00283785 831.91332949 -359.9375 821.8125 C-366.40346689 814.74578313 -369.33437073 805.34967551 -369.2109375 795.96875 C-368.50882332 786.08714295 -363.99271169 776.31986131 -356.625 769.625 C-350.40547941 764.75694951 -343.94810605 761.87910329 -336.0211792 761.86971474 C-335.01246387 761.86609039 -334.00374855 761.86246604 -332.96446609 761.85873187 C-331.85825283 761.85980012 -330.75203957 761.86086837 -329.61230469 761.86196899 C-328.43564617 761.85914771 -327.25898766 761.85632643 -326.04667282 761.85341966 C-322.77977132 761.8465205 -319.51290028 761.84404738 -316.24599266 761.84336853 C-312.72311133 761.84152842 -309.20024228 761.83392145 -305.67736816 761.82688904 C-299.57255202 761.81536449 -293.46773863 761.80711973 -287.36291504 761.80076981 C-277.71685972 761.79044617 -268.07083886 761.76988412 -258.42480469 761.74765015 C-255.12530529 761.74017059 -251.82580574 761.73275687 -248.52630615 761.72536278 C-247.70174777 761.72351221 -246.87718939 761.72166165 -246.0276444 761.719755 C-236.64213086 761.69882893 -227.25661353 761.67999916 -217.87109375 761.66210938 C-216.58411504 761.6596521 -216.58411504 761.6596521 -215.27113676 761.65714519 C-201.35813406 761.63084356 -187.4451287 761.61220874 -173.53211164 761.59551747 C-159.25309769 761.57811013 -144.97413597 761.54928109 -130.69516373 761.5106281 C-121.88434621 761.48720516 -113.07361383 761.47323148 -104.26276493 761.47130047 C-98.22815329 761.4691946 -92.19362644 761.4562949 -86.15905285 761.43482114 C-82.67502155 761.42276826 -79.19115862 761.41565657 -75.70710754 761.42153358 C-71.9337838 761.42540446 -68.16096252 761.41105052 -64.38769531 761.39199829 C-63.28148205 761.39752799 -62.17526878 761.40305768 -61.03553391 761.40875494 C-60.02681858 761.3999151 -59.01810326 761.39107526 -57.9788208 761.38196754 C-57.10763233 761.38061102 -56.23644386 761.37925449 -55.33885574 761.37785685 C-52.47941531 760.91589627 -51.09423078 759.97280753 -49 758 C-48.40197122 755.64520945 -48.40197122 755.64520945 -48.50390625 752.9921875 C-48.50326172 752.00476563 -48.50261719 751.01734375 -48.50195312 750 C-48.52193359 748.96875 -48.54191406 747.9375 -48.5625 746.875 C-48.55186523 745.36292969 -48.55186523 745.36292969 -48.54101562 743.8203125 C-48.61410871 735.13910276 -50.12463726 726.86172022 -55.85369396 720.03981495 C-65.62179978 710.75636333 -76.9632936 709.9954145 -89.6628418 710.17700195 C-91.39088438 710.17565902 -93.11892689 710.1711727 -94.84695435 710.16381836 C-98.53955526 710.15463744 -102.23119173 710.16708368 -105.92368126 710.19695473 C-111.77106028 710.2439058 -117.61776769 710.2400895 -123.46528625 710.2297821 C-133.7672427 710.21800693 -144.06873915 710.24877065 -154.37060547 710.28894043 C-169.88555163 710.34893548 -185.40052423 710.37315523 -200.91557819 710.36069459 C-206.71995206 710.35759874 -212.52373803 710.37589942 -218.32799757 710.41168749 C-221.94497857 710.43031815 -225.56184449 710.43255737 -229.17886734 710.4307785 C-230.84650702 710.43342157 -232.51415319 710.44289892 -234.18170738 710.45998955 C-247.04902198 710.58686349 -258.24529529 709.19729301 -268 700 C-274.67377357 693.23332007 -277.98497184 683.87968296 -278.5 674.4375 C-277.88570773 663.29833358 -272.69002599 654.13528575 -264.625 646.75 C-256.45372026 639.62632023 -245.85463511 638.08796219 -235.6171875 635.8203125 C-224.66342693 633.25413866 -213.99088406 630.08379295 -207.40234375 620.40234375 C-202.34776262 611.74338165 -200.72996279 604.0711723 -202 594 C-205.66704919 580.37025965 -214.633666 572.54382874 -226.25 565.4375 C-227.68031714 564.55179724 -229.1099831 563.66504221 -230.5390625 562.77734375 C-231.27415039 562.32085449 -232.00923828 561.86436523 -232.76660156 561.39404297 C-283.04095932 530.01378687 -321.09652002 491.9699424 -336 433 C-337.29884406 427.04130647 -338.21489033 421.04534445 -339 415 C-339.17055908 413.79980225 -339.34111816 412.59960449 -339.5168457 411.36303711 C-340.09888748 406.66828085 -340.19676167 402.00781025 -340.23828125 397.28125 C-340.24812042 396.35859344 -340.25795959 395.43593689 -340.26809692 394.48532104 C-340.45532324 372.30607809 -339.81938639 350.89904201 -336 329 C-335.8764917 328.28239502 -335.7529834 327.56479004 -335.62573242 326.82543945 C-326.12478747 271.85100625 -308.96662361 219.60771037 -276 174 C-275.59185059 173.4313623 -275.18370117 172.86272461 -274.76318359 172.27685547 C-272.24957973 168.79136836 -269.64878742 165.38358393 -267 162 C-266.5369043 161.40687012 -266.07380859 160.81374023 -265.59667969 160.20263672 C-239.3099301 126.70274867 -208.2102531 103.52493554 -171.68196106 82.31202698 C-165.23952492 78.56665536 -158.8392442 74.75198639 -152.4375 70.9375 C-143.13562121 65.40591341 -133.77928537 59.97973299 -124.375 54.625 C-123.77658295 54.28424438 -123.17816589 53.94348877 -122.56161499 53.59240723 C-121.96982452 53.25543823 -121.37803406 52.91846924 -120.76831055 52.57128906 C-112.68002009 47.96543457 -104.6258383 43.31038216 -96.62304688 38.55761719 C-93.98192911 36.98926914 -91.3393428 35.42341093 -88.69656372 33.85786438 C-85.29710437 31.84376257 -81.89846165 29.82828471 -78.5 27.8125 C-77.80980774 27.40315216 -77.11961548 26.99380432 -76.4085083 26.572052 C-69.16704375 22.2757571 -61.93233538 17.96922641 -54.7265625 13.61328125 C-53.60701172 12.93740967 -52.48746094 12.26153809 -51.33398438 11.56518555 C-49.26812285 10.31614404 -47.20416268 9.06394956 -45.14257812 7.80786133 C-31.64954754 -0.34981953 -15.49950858 -8.77643114 0 0 Z " fill="#E3EB10" transform="translate(693,163)"/>
<path d="M0 0 C0 1.98 0 3.96 0 6 C-0.62328926 6.00097681 -1.24657851 6.00195362 -1.88875532 6.00296003 C-38.8316914 6.06123473 -75.77456618 6.13503354 -112.71742937 6.22898628 C-117.15341617 6.24025442 -121.58940329 6.25139287 -126.02539062 6.26245117 C-127.35007586 6.2657567 -127.35007586 6.2657567 -128.70152241 6.269129 C-143.00006525 6.30449933 -157.29860803 6.32936496 -171.5971784 6.35034702 C-186.26933305 6.37211117 -200.94143094 6.40516744 -215.61353731 6.44870156 C-224.66667574 6.47520768 -233.71974345 6.49291071 -242.77291876 6.49934604 C-248.98140713 6.5046031 -255.18980651 6.52083077 -261.39824718 6.54566566 C-264.97995293 6.55966978 -268.56149942 6.56885556 -272.14323425 6.56500816 C-276.02916182 6.56096064 -279.91478327 6.58002427 -283.80065918 6.60127258 C-284.92907714 6.59642501 -286.05749511 6.59157743 -287.22010756 6.58658296 C-293.52357939 6.64351541 -298.24780668 7.37920164 -304 10 C-304.33 9.01 -304.66 8.02 -305 7 C-302.69 6.34 -300.38 5.68 -298 5 C-298 4.01 -298 3.02 -298 2 C-294.72026233 0.90675411 -292.27295358 0.84870391 -288.81787109 0.81054688 C-288.1772385 0.80223658 -287.53660591 0.79392628 -286.87656021 0.78536415 C-284.67554693 0.7582739 -282.47452842 0.73847483 -280.2734375 0.71875 C-278.63178178 0.70072722 -276.99012943 0.68239481 -275.34848022 0.66378784 C-270.68961502 0.6128022 -266.03070471 0.56917722 -261.37174988 0.52727509 C-258.37302365 0.49998201 -255.37431713 0.4710591 -252.37561035 0.44171143 C-203.5041724 -0.0323619 -154.63055365 -0.29454617 -105.75767148 -0.56821275 C-97.95389431 -0.61207591 -90.15013311 -0.65828337 -82.34637451 -0.70532227 C-72.69426929 -0.76335907 -63.04215066 -0.81738329 -53.38999593 -0.86652839 C-48.36554286 -0.89217126 -43.3411123 -0.91944289 -38.31669235 -0.95096207 C-33.65409818 -0.98011874 -28.9915043 -1.00445205 -24.32886434 -1.02496815 C-22.62703411 -1.03328679 -20.92521138 -1.04335236 -19.22340274 -1.0552969 C-16.90745389 -1.07127858 -14.5915617 -1.08095011 -12.27557373 -1.08901978 C-10.98291973 -1.09601709 -9.69026573 -1.10301441 -8.3584404 -1.11022377 C-5.42915403 -1.0140848 -2.84050863 -0.68667996 0 0 Z " fill="#FAF949" transform="translate(645,926)"/>
<path d="M0 0 C35.91632921 -0.09156482 71.83263795 -0.16204344 107.74905986 -0.20426132 C111.98977056 -0.20926412 116.23048104 -0.21444141 120.47119141 -0.21972656 C121.3154369 -0.2207758 122.1596824 -0.22182505 123.02951109 -0.22290608 C136.69761252 -0.24030909 150.36564661 -0.27184621 164.0337081 -0.30861118 C178.05945644 -0.3460235 192.08516953 -0.36823647 206.11096573 -0.37635398 C214.76495279 -0.38184115 223.41874955 -0.39916896 232.07267803 -0.43166587 C238.00781978 -0.45281735 243.9428632 -0.45919862 249.8780399 -0.45400551 C253.30186201 -0.45144469 256.72535168 -0.45535715 260.14911461 -0.4768219 C263.86440506 -0.49671329 267.57888026 -0.49194109 271.29418945 -0.48101807 C272.91094291 -0.49849512 272.91094291 -0.49849512 274.56035805 -0.51632524 C284.37122245 -0.4383245 291.12233053 3.03505046 298 10 C302.05839105 14.8059894 302.72951875 18.91417183 303 25 C302.13375 23.88625 302.13375 23.88625 301.25 22.75 C299.09340686 20.00801381 299.09340686 20.00801381 296.75 17.8125 C295 16 295 16 295 14 C294.43023438 13.72285156 293.86046875 13.44570313 293.2734375 13.16015625 C291.7938986 12.40513382 290.33769678 11.60187391 288.9140625 10.74609375 C277.27004535 4.08953104 262.89911182 5.85783398 249.85302734 5.90234375 C248.17446945 5.90426903 246.49591097 5.90572994 244.81735229 5.9067688 C241.21529432 5.90991306 237.61326025 5.91616015 234.0112114 5.92483521 C228.21537222 5.93861324 222.41954043 5.94431041 216.62368774 5.94897461 C202.16484386 5.96186226 187.7060205 5.98586618 173.24719238 6.01037598 C159.15177774 6.03407763 145.05636883 6.05244361 130.9609375 6.0625 C129.47254757 6.06368395 129.47254757 6.06368395 127.95408916 6.06489182 C84.96431179 6.09660603 41.98451627 5.64235134 -1 5 C-0.67 3.35 -0.34 1.7 0 0 Z " fill="#F7F541" transform="translate(436,446)"/>
<path d="M0 0 C0.66 0 1.32 0 2 0 C2.29132813 0.66386719 2.58265625 1.32773437 2.8828125 2.01171875 C6.32261251 9.42135085 8.98295125 13.21910303 16.62220764 16.60585022 C23.93667516 18.93901219 31.70150956 18.40604818 39.29467773 18.36889648 C41.04330684 18.3713674 42.79193445 18.37520876 44.54055786 18.38031006 C48.29241831 18.38862 52.04412681 18.38786438 55.79598808 18.38012505 C61.73499898 18.36849956 67.6738162 18.38074006 73.61280823 18.39674377 C88.36197761 18.43286469 103.11114194 18.43916946 117.86035156 18.43664551 C129.32971862 18.43493241 140.79892649 18.44210506 152.26824909 18.47662407 C158.16562236 18.49337425 164.06260652 18.49166141 169.95997798 18.47580135 C173.63595894 18.46998604 177.31175715 18.48077718 180.98770523 18.49604797 C182.68475954 18.4997598 184.38184508 18.49670802 186.07887077 18.48617744 C198.19501772 18.41603559 208.08248874 19.40051565 217.2421875 28.078125 C221.99377473 33.2731937 224.55930934 37.94894944 225 45 C224.01 45 223.02 45 222 45 C219.49419186 40.87754145 217.81938361 37.77973773 217 33 C216.34 32.34 215.68 31.68 215 31 C214.4225 31.20625 213.845 31.4125 213.25 31.625 C209.70121058 32.2164649 207.86005098 29.98452517 205 28 C200.88577831 26.84812261 196.88692546 26.87278197 192.63252258 26.86869812 C191.90026669 26.86658241 191.1680108 26.86446669 190.41356534 26.86228687 C187.96490408 26.85630529 185.51629462 26.85728571 183.06762695 26.8581543 C181.30973727 26.85512153 179.55184838 26.85159975 177.79396057 26.84762573 C174.0098849 26.83974464 170.22581863 26.83459476 166.44173622 26.83133507 C160.45267998 26.82541625 154.4636829 26.80886707 148.47465515 26.78999329 C146.42260078 26.78365606 144.37054638 26.77733043 142.31849194 26.77101612 C140.77705487 26.7662674 140.77705487 26.7662674 139.20447767 26.76142275 C125.26434 26.71938234 111.32423005 26.68637855 97.3840332 26.67407227 C87.97710382 26.66568267 78.57032118 26.64315888 69.1634652 26.6047166 C64.18883107 26.58498685 59.21441612 26.57254116 54.23974037 26.57755089 C49.55695059 26.58220931 44.87457589 26.5683268 40.19186974 26.54053879 C38.47870623 26.53364719 36.76549963 26.53347847 35.05233765 26.54073906 C24.80388632 26.57976743 15.70996559 26.36929474 7.23828125 19.88671875 C2.13303821 14.05659333 2.13303821 14.05659333 1.73046875 10.859375 C2 8.9375 2 8.9375 3 6 C2.34 6 1.68 6 1 6 C0.67 4.02 0.34 2.04 0 0 Z " fill="#FBFA44" transform="translate(421,546)"/>
<path d="M0 0 C0.33 0.66 0.66 1.32 1 2 C-5.4950701 12.65191496 -13.99917605 18.56575812 -26 22 C-28.58086192 22.17667023 -31.04893218 22.26060222 -33.62612915 22.23809814 C-34.37416254 22.23965715 -35.12219594 22.24121616 -35.89289701 22.24282241 C-38.38914343 22.24576812 -40.88512671 22.23462165 -43.38134766 22.22363281 C-45.17554725 22.22310834 -46.96974735 22.22354481 -48.76394653 22.22486877 C-52.62387106 22.22620112 -56.4837319 22.22179896 -60.343647 22.21326447 C-66.45516146 22.20086379 -72.56655816 22.20784224 -78.67807007 22.21868896 C-96.05575703 22.24712841 -113.43334309 22.25962574 -130.81103516 22.22998047 C-140.41175019 22.21376484 -150.01220798 22.21898494 -159.61289632 22.24777675 C-164.68831087 22.26203539 -169.76318999 22.265167 -174.83858109 22.24155426 C-179.61754122 22.21932406 -184.39567186 22.22504791 -189.17460251 22.25153923 C-190.92080734 22.25628481 -192.66707589 22.25093525 -194.41320801 22.23430824 C-205.47365756 22.13600201 -215.56380514 22.69486461 -223.98229408 30.94192886 C-225.37660482 32.58269841 -226.69714076 34.28571153 -228 36 C-228.66 36 -229.32 36 -230 36 C-228.73144465 31.48446877 -227.15214199 28.46293236 -224.0625 24.9375 C-223.37285156 24.12152344 -222.68320312 23.30554687 -221.97265625 22.46484375 C-212.36009507 14.49437581 -202.25720757 14.28333956 -190.37060547 14.37231445 C-188.61020147 14.36712773 -186.84980283 14.35972162 -185.0894165 14.35028076 C-181.31839638 14.3347868 -177.54782112 14.33483767 -173.77679062 14.34728432 C-167.80842386 14.36691546 -161.84044854 14.35157442 -155.87210083 14.33183289 C-146.43062402 14.30474193 -136.98930818 14.30118119 -127.54780018 14.30760592 C-110.64028576 14.31856257 -93.73281973 14.29387362 -76.8253547 14.25385827 C-70.89767926 14.24081947 -64.97015126 14.23950886 -59.04246879 14.2479912 C-55.3512991 14.25162614 -51.6601668 14.24730453 -47.96900177 14.2411499 C-46.26346065 14.24006822 -44.55791324 14.24240426 -42.85238266 14.2484951 C-25.54909148 14.30730182 -13.50806197 11.32197465 0 0 Z " fill="#F0F039" transform="translate(617,1032)"/>
<path d="M0 0 C4.14010639 1.38003546 4.89440718 3.81420948 7.01171875 7.48046875 C11.70133951 13.42311195 18.47144222 17.00372248 25.0625 20.5 C52.43488624 35.3845501 77.94559876 51.87269165 100 74 C100.5878125 74.54140625 101.175625 75.0828125 101.78125 75.640625 C113.37345103 86.49514051 122.32777518 100.1921394 130 114 C130.37560059 114.66902344 130.75120117 115.33804688 131.13818359 116.02734375 C132.27057217 118.0536729 133.38882515 120.08696959 134.5 122.125 C134.83878174 122.74068848 135.17756348 123.35637695 135.52661133 123.99072266 C137.29363555 127.30498058 138.49328718 130.27003064 139 134 C136.03 133.01 136.03 133.01 133 132 C132.86722656 131.30132813 132.73445312 130.60265625 132.59765625 129.8828125 C132.42105469 128.97273437 132.24445313 128.06265625 132.0625 127.125 C131.88847656 126.22007812 131.71445312 125.31515625 131.53515625 124.3828125 C131.10036299 122.00043683 131.10036299 122.00043683 130 120 C129.01 120 128.02 120 127 120 C125.31640625 117.734375 125.31640625 117.734375 123.5625 114.75 C121.33266553 110.97873633 119.13286787 108.04854638 116 105 C115.07297443 103.3445972 114.14710265 101.68852319 113.23046875 100.02734375 C94.49776683 69.16298725 59.68270374 49.33125655 29.4375 31.76171875 C4.51451102 17.23053455 4.51451102 17.23053455 0 2 C0 1.34 0 0.68 0 0 Z " fill="#ECE845" transform="translate(563,685)"/>
<path d="M0 0 C1.55892239 2.33838358 2.54209559 4.2198495 3.625 6.75 C7.02892485 13.58297092 13.13591909 18.34951848 20.12890625 21.24609375 C23.99726039 22.26186565 27.8355491 22.53852665 31.8125 22.875 C43.43190165 23.91048672 51.74049016 27.5887109 59.37890625 36.65625 C63.71421867 42.92417157 64.40602355 47.43399299 64.1875 54.875 C64.16719727 56.19371094 64.16719727 56.19371094 64.14648438 57.5390625 C64.11136623 59.69297552 64.05756694 61.84657004 64 64 C63.67 64 63.34 64 63 64 C62.95101562 63.30132812 62.90203125 62.60265625 62.8515625 61.8828125 C62.77679687 60.97273438 62.70203125 60.06265625 62.625 59.125 C62.52058594 57.76761719 62.52058594 57.76761719 62.4140625 56.3828125 C62.20431868 53.82058097 62.20431868 53.82058097 60 52 C59.47265625 50.16015625 59.47265625 50.16015625 59.0625 48.0625 C58.29674395 44.7874203 57.71582146 43.11230558 55 41 C54.278125 40.195625 53.55625 39.39125 52.8125 38.5625 C46.4125582 32.73144191 39.78632819 31.01653002 31.3125 30.625 C19.46268046 29.76720541 13.27866753 26.71046853 5 18 C1.48540116 13.69924089 -0.14343139 9.89676566 -0.0625 4.3125 C-0.05347656 3.50425781 -0.04445313 2.69601562 -0.03515625 1.86328125 C-0.02355469 1.24839844 -0.01195312 0.63351562 0 0 Z " fill="#DDDA43" transform="translate(619,301)"/>
<path d="M0 0 C2.4375 0.8125 2.4375 0.8125 5 2 C5.33 2.99 5.66 3.98 6 5 C4.95551382 4.76971352 4.95551382 4.76971352 3.88992691 4.53477478 C-7.27240032 2.46921005 -18.86813871 2.86383339 -30.17871094 2.90234375 C-31.86051387 2.90426899 -33.54231738 2.90572991 -35.22412109 2.9067688 C-38.83273143 2.90991289 -42.4413179 2.91615961 -46.04991913 2.92483521 C-51.85361023 2.93860878 -57.65729395 2.94430934 -63.46099854 2.94897461 C-77.93739001 2.96186356 -92.41376095 2.98588847 -106.89013672 3.01037598 C-121.00487917 3.03405771 -135.11961594 3.05243113 -149.234375 3.0625 C-150.22676367 3.0632893 -151.21915234 3.0640786 -152.24161339 3.06489182 C-194.49974044 3.09606866 -236.74732908 2.65064559 -279 2 C-279 1.67 -279 1.34 -279 1 C-245.04562476 0.97709522 -211.09125144 0.95948224 -177.13687019 0.94893467 C-173.12534509 0.94768401 -169.11382 0.94638968 -165.10229492 0.94506836 C-164.30369558 0.94480605 -163.50509623 0.94454374 -162.68229691 0.94427348 C-149.76313937 0.93992595 -136.8439863 0.93204344 -123.92483141 0.9228472 C-110.66182303 0.91348516 -97.39881698 0.90793898 -84.13580543 0.90591151 C-75.95636578 0.90454158 -67.77693875 0.90021971 -59.59750298 0.89208353 C-53.98333763 0.88678461 -48.36917877 0.88520285 -42.7550111 0.88649862 C-39.51928779 0.88713709 -36.28359102 0.885628 -33.04787064 0.88079453 C-29.53093507 0.87579953 -26.01405296 0.87702308 -22.49711609 0.87974548 C-21.4863832 0.87683264 -20.47565031 0.8739198 -19.43428916 0.87091869 C-12.90685601 0.88452109 -6.48989652 1.30460058 0 2 C0 1.34 0 0.68 0 0 Z " fill="#F9F834" transform="translate(716,449)"/>
<path d="M0 0 C3.10533686 1.34682777 4.85963966 2.71113983 6.91796875 5.38671875 C7.70941284 6.41176514 7.70941284 6.41176514 8.5168457 7.45751953 C9.06816162 8.19341309 9.61947754 8.92930664 10.1875 9.6875 C10.76266357 10.4491748 11.33782715 11.21084961 11.93041992 11.99560547 C17.16771891 19.03763456 21.74098436 26.33496207 26 34 C26.37560059 34.66902344 26.75120117 35.33804688 27.13818359 36.02734375 C28.27057217 38.0536729 29.38882515 40.08696959 30.5 42.125 C30.83878174 42.74068848 31.17756348 43.35637695 31.52661133 43.99072266 C33.29363555 47.30498058 34.49328718 50.27003064 35 54 C33.02 53.34 31.04 52.68 29 52 C28.86722656 51.30132813 28.73445312 50.60265625 28.59765625 49.8828125 C28.42105469 48.97273437 28.24445312 48.06265625 28.0625 47.125 C27.88847656 46.22007812 27.71445312 45.31515625 27.53515625 44.3828125 C27.10036299 42.00043683 27.10036299 42.00043683 26 40 C25.01 40 24.02 40 23 40 C21.31640625 37.734375 21.31640625 37.734375 19.5625 34.75 C17.33255316 30.97854628 15.13286579 28.04871856 12 25 C11.05641094 23.34058476 10.11598075 21.67893995 9.21484375 19.99609375 C7.27387253 16.80690953 4.81966675 14.0380155 2.390625 11.2109375 C0.73005235 8.57081357 0.89848196 7.05569302 1 4 C0.34 3.34 -0.32 2.68 -1 2 C-0.67 1.34 -0.34 0.68 0 0 Z " fill="#FAF733" transform="translate(667,765)"/>
<path d="M0 0 C7.38343728 0.67122157 12.88846719 2.70013416 17.86328125 8.3359375 C18.64251953 9.31433594 18.64251953 9.31433594 19.4375 10.3125 C19.94667969 10.90289062 20.45585938 11.49328125 20.98046875 12.1015625 C26.37679601 19.68967535 24.84278905 29.45918578 24.4375 38.3125 C24.1075 38.3125 23.7775 38.3125 23.4375 38.3125 C23.38851562 37.61382812 23.33953125 36.91515625 23.2890625 36.1953125 C23.21429687 35.28523438 23.13953125 34.37515625 23.0625 33.4375 C22.95808594 32.08011719 22.95808594 32.08011719 22.8515625 30.6953125 C22.64181868 28.13308097 22.64181868 28.13308097 20.4375 26.3125 C19.91015625 24.47265625 19.91015625 24.47265625 19.5 22.375 C18.73424395 19.0999203 18.15332146 17.42480558 15.4375 15.3125 C14.715625 14.508125 13.99375 13.70375 13.25 12.875 C5.62033291 5.92352554 -2.2832382 5.18763274 -12.25 4.69140625 C-15.25348329 4.34784743 -17.02592105 3.8788375 -19.5625 2.3125 C-17.97308594 2.34730469 -17.97308594 2.34730469 -16.3515625 2.3828125 C-14.9635487 2.40156944 -13.5755273 2.41976972 -12.1875 2.4375 C-11.48882813 2.45425781 -10.79015625 2.47101563 -10.0703125 2.48828125 C-8.23352514 2.50594267 -6.39648037 2.41553261 -4.5625 2.3125 C-2.5625 0.3125 -2.5625 0.3125 0 0 Z " fill="#E2E053" transform="translate(658.5625,326.6875)"/>
<path d="M0 0 C23.80848099 0.08380718 47.61689355 0.17890604 71.42527485 0.28752708 C82.47938459 0.33769467 93.53348675 0.38413706 104.58764648 0.421875 C114.22003958 0.45476853 123.85237462 0.49458503 133.48470372 0.54279006 C138.58711868 0.56808134 143.689495 0.58985482 148.79195595 0.60334396 C153.59110992 0.6161405 158.39013154 0.63816872 163.1892128 0.66738319 C164.95368841 0.67647786 166.71818534 0.68215358 168.48268318 0.68421364 C170.88589 0.68752289 173.28871854 0.70296361 175.69184875 0.7215271 C176.39515377 0.71959237 177.09845878 0.71765763 177.82307607 0.71566427 C181.44459135 0.75768314 182.89451819 0.92967879 186 3 C125.28 3 64.56 3 2 3 C2 2.34 2 1.68 2 1 C1.34 0.67 0.68 0.34 0 0 Z " fill="#81811E" transform="translate(439,564)"/>
<path d="M0 0 C0.96647964 -0.00043808 1.93295929 -0.00087616 2.9287262 -0.00132751 C6.11040735 0.00075576 9.29155588 0.02406543 12.47314453 0.04760742 C14.68417066 0.053205 16.89520051 0.05747434 19.10623169 0.06047058 C24.91612074 0.0719065 30.7257836 0.10136314 36.5355835 0.13458252 C42.46786439 0.16531027 48.40018194 0.17898171 54.33251953 0.1940918 C65.96543122 0.22623385 77.59817529 0.27741525 89.23095703 0.34057617 C89.23095703 0.67057617 89.23095703 1.00057617 89.23095703 1.34057617 C39.73095703 1.83557617 39.73095703 1.83557617 -10.76904297 2.34057617 C-10.76904297 3.33057617 -10.76904297 4.32057617 -10.76904297 5.34057617 C-12.74904297 6.00057617 -14.72904297 6.66057617 -16.76904297 7.34057617 C-16.76904297 8.66057617 -16.76904297 9.98057617 -16.76904297 11.34057617 C-22.39404297 13.34057617 -22.39404297 13.34057617 -25.76904297 13.34057617 C-24.38086507 10.06136001 -22.88934282 8.3640499 -20.01904297 6.27807617 C-19.36419922 5.79209961 -18.70935547 5.30612305 -18.03466797 4.80541992 C-11.76920833 0.75447619 -7.31573864 -0.0872711 0 0 Z " fill="#F2F03F" transform="translate(357.76904296875,925.659423828125)"/>
<path d="M0 0 C3.60283532 1.20094511 3.82960674 2.0093846 5.6875 5.1875 C11.09936793 13.57058954 19.32311903 17.50205803 28 22 C27.39542969 22.1340625 26.79085937 22.268125 26.16796875 22.40625 C23.83238744 22.95291296 23.83238744 22.95291296 21.3125 24.5 C18 25 18 25 15.7890625 23.78125 C7.86145493 17.7762848 3.04842211 11.46884187 0 2 C0 1.34 0 0.68 0 0 Z " fill="#FAF73F" transform="translate(563,685)"/>
<path d="M0 0 C5.58682341 3.38653337 11.25773539 7.93227423 14 14 C14.63955586 17.00543165 14.92345022 19.9310496 15 23 C14.4225 22.2575 13.845 21.515 13.25 20.75 C11.09340686 18.00801381 11.09340686 18.00801381 8.75 15.8125 C7 14 7 14 7 12 C6.443125 11.731875 5.88625 11.46375 5.3125 11.1875 C4.1678125 10.5996875 4.1678125 10.5996875 3 10 C2.113125 9.54625 1.22625 9.0925 0.3125 8.625 C-2 7 -2 7 -2.8125 4.8125 C-2.9053125 3.9153125 -2.9053125 3.9153125 -3 3 C-4.32 2.67 -5.64 2.34 -7 2 C-7 1.34 -7 0.68 -7 0 C-4.24955208 -1.37522396 -2.92772411 -0.83526247 0 0 Z " fill="#E4E148" transform="translate(724,448)"/>
<path d="M0 0 C0.33 0.66 0.66 1.32 1 2 C-3.57474019 9.50257391 -9.06820929 15.1118673 -17 19 C-17.66 19 -18.32 19 -19 19 C-19.66 18.34 -20.32 17.68 -21 17 C-22.33076989 16.65657551 -23.66431979 16.32380126 -25 16 C-25.99 15.34 -26.98 14.68 -28 14 C-26.081875 13.6596875 -26.081875 13.6596875 -24.125 13.3125 C-14.67624514 11.17986568 -7.33404855 6.14713731 0 0 Z " fill="#EBEB49" transform="translate(617,1032)"/>
<path d="M0 0 C2.96612428 2.76075267 5.00108114 5.40819123 6.9453125 8.95703125 C7.46480469 9.90513672 7.98429688 10.85324219 8.51953125 11.83007812 C9.04933594 12.81427734 9.57914063 13.79847656 10.125 14.8125 C10.66253906 15.78509766 11.20007813 16.75769531 11.75390625 17.75976562 C14.47891931 22.77827472 16.73932626 27.4203514 18 33 C16.02 32.34 14.04 31.68 12 31 C11.86722656 30.30132813 11.73445312 29.60265625 11.59765625 28.8828125 C11.42105469 27.97273437 11.24445312 27.06265625 11.0625 26.125 C10.88847656 25.22007812 10.71445312 24.31515625 10.53515625 23.3828125 C10.10036299 21.00043683 10.10036299 21.00043683 9 19 C8.01 19 7.02 19 6 19 C3.14176145 14.71264217 2.19251275 9.9688031 1 5 C0.01 5 -0.98 5 -2 5 C-1.34 3.35 -0.68 1.7 0 0 Z " fill="#D0CE3A" transform="translate(684,786)"/>
<path d="M0 0 C3.7305726 0.44732806 7.45911839 0.90979102 11.1875 1.375 C12.77014648 1.56449219 12.77014648 1.56449219 14.38476562 1.7578125 C15.40634766 1.88671875 16.42792969 2.015625 17.48046875 2.1484375 C18.88655396 2.32125244 18.88655396 2.32125244 20.32104492 2.49755859 C23.08074244 3.01514335 25.43480747 3.87302406 28 5 C27.01 5.66 26.02 6.32 25 7 C25 6.34 25 5.68 25 5 C20.66770285 5.8604139 20.66770285 5.8604139 17 8 C14.29891496 7.909084 11.63069689 7.76259234 8.9375 7.5625 C7.79958008 7.48418945 7.79958008 7.48418945 6.63867188 7.40429688 C4.75878278 7.27424165 2.87934315 7.13771962 1 7 C0 2.25 0 2.25 0 0 Z " fill="#D5D345" transform="translate(637,322)"/>
<path d="M0 0 C0.66 0 1.32 0 2 0 C2.29132813 0.66386719 2.58265625 1.32773437 2.8828125 2.01171875 C6.08439877 8.90821748 8.78375913 13.07519439 15.875 16.3125 C16.57625 16.539375 17.2775 16.76625 18 17 C17.01 17.66 16.02 18.32 15 19 C14.27617533 21.05925139 14.27617533 21.05925139 14 23 C9.16748234 21.82848057 6.4269096 18.85060918 3.31640625 15.17578125 C1.8608424 12.76999767 1.6549831 11.74096981 2.0625 9 C2.5265625 7.515 2.5265625 7.515 3 6 C2.34 6 1.68 6 1 6 C0.67 4.02 0.34 2.04 0 0 Z " fill="#E5E345" transform="translate(421,546)"/>
<path d="M0 0 C7.16288302 10.74432453 6.75012882 24.58140238 7 37 C6.67 37 6.34 37 6 37 C5.81824219 36.01 5.63648438 35.02 5.44921875 34 C4.14276511 27.07000098 2.66491037 20.55123799 0 14 C-1.0517302 10.68152709 -2.03372799 7.34426057 -3 4 C-2.34 4 -1.68 4 -1 4 C-0.67 2.68 -0.34 1.36 0 0 Z " fill="#E4E522" transform="translate(706,829)"/>
<path d="M0 0 C4.66526898 4.70210005 5.27867934 10.0947797 5.34277344 16.42407227 C5.29843751 20.2880912 5.17672096 24.1396289 5 28 C4.67 28 4.34 28 4 28 C3.95101562 27.30132812 3.90203125 26.60265625 3.8515625 25.8828125 C3.77679687 24.97273438 3.70203125 24.06265625 3.625 23.125 C3.55539062 22.22007812 3.48578125 21.31515625 3.4140625 20.3828125 C3.20431868 17.82058097 3.20431868 17.82058097 1 16 C0.47265625 14.16015625 0.47265625 14.16015625 0.0625 12.0625 C-0.70846058 8.75923045 -1.32414366 7.18032739 -4 5 C-4.91071301 3.95022602 -5.80541979 2.88644512 -6.6875 1.8125 C-7.450625 0.884375 -8.21375 -0.04375 -9 -1 C-5.15249331 -2.06875186 -3.39572811 -2.10243323 0 0 Z " fill="#EDEB3C" transform="translate(678,337)"/>
<path d="M0 0 C0.66 0.99 1.32 1.98 2 3 C-1.31196978 4.8967607 -4.62467422 6.79223482 -7.9375 8.6875 C-8.86369141 9.21794922 -9.78988281 9.74839844 -10.74414062 10.29492188 C-16.47341873 13.57166689 -22.22136231 16.81107786 -28 20 C-28 19.01 -28 18.02 -28 17 C-27.01 17 -26.02 17 -25 17 C-25 16.34 -25 15.68 -25 15 C-24.01 15 -23.02 15 -22 15 C-22 14.34 -22 13.68 -22 13 C-20.68 13 -19.36 13 -18 13 C-18 12.01 -18 11.02 -18 10 C-15.03 8.68 -12.06 7.36 -9 6 C-9 5.67 -9 5.34 -9 5 C-7.35 5 -5.7 5 -4 5 C-3.67 4.01 -3.34 3.02 -3 2 C-2.01 1.34 -1.02 0.68 0 0 Z " fill="#BEBE0A" transform="translate(679,235)"/>
<path d="M0 0 C-1.65 0.33 -3.3 0.66 -5 1 C-5 1.99 -5 2.98 -5 4 C-6.98 4.66 -8.96 5.32 -11 6 C-11 7.32 -11 8.64 -11 10 C-16.625 12 -16.625 12 -20 12 C-17.49827895 6.09032222 -12.0868228 3.24406744 -6.75 0.0625 C-3.88366518 -1.04494754 -2.78799721 -1.17953728 0 0 Z " fill="#DBDA39" transform="translate(352,927)"/>
<path d="M0 0 C0.66 0.33 1.32 0.66 2 1 C0.12344191 10.15841939 -6.88039306 16.50773179 -14 22 C-14.99 21.01 -15.98 20.02 -17 19 C-16.41992188 18.67128906 -15.83984375 18.34257813 -15.2421875 18.00390625 C-7.69056459 13.40564082 -3.81663912 7.84629996 0 0 Z " fill="#C6C603" transform="translate(490,775)"/>
<path d="M0 0 C3.88014936 1.52059907 5.73906562 3.86078531 8.25 7.125 C8.95640625 8.03507813 9.6628125 8.94515625 10.390625 9.8828125 C11.18726563 10.93082031 11.18726563 10.93082031 12 12 C11.67 12.66 11.34 13.32 11 14 C10.01 14 9.02 14 8 14 C7.67 13.34 7.34 12.68 7 12 C6.175 11.71125 5.35 11.4225 4.5 11.125 C2 10 2 10 1.1875 8 C1 6 1 6 1 4 C0.34 3.34 -0.32 2.68 -1 2 C-0.67 1.34 -0.34 0.68 0 0 Z " fill="#DAD638" transform="translate(667,765)"/>
<path d="M0 0 C5.82868396 5.50486819 9.3465701 9.83212627 10 18 C9.01 18 8.02 18 7 18 C4.49419186 13.87754145 2.81938361 10.77973773 2 6 C1.34 5.34 0.68 4.68 0 4 C-0.33 3.34 -0.66 2.68 -1 2 C-0.67 1.34 -0.34 0.68 0 0 Z " fill="#D8D744" transform="translate(636,573)"/>
<path d="M0 0 C0.66 0.33 1.32 0.66 2 1 C2 2.66666667 2 4.33333333 2 6 C1.29875 6.391875 0.5975 6.78375 -0.125 7.1875 C-3.39432266 9.24859472 -5.30400321 11.56156609 -7.66796875 14.57421875 C-8.10753906 15.04472656 -8.54710937 15.51523438 -9 16 C-9.66 16 -10.32 16 -11 16 C-9.69891569 11.12450824 -7.82914252 8.2765221 -4.375 4.625 C-3.14910156 3.31402344 -3.14910156 3.31402344 -1.8984375 1.9765625 C-1.27195312 1.32429688 -0.64546875 0.67203125 0 0 Z " fill="#CECF3B" transform="translate(398,1052)"/>
<path d="M0 0 C0.66 1.32 1.32 2.64 2 4 C1.54109375 4.65226563 1.0821875 5.30453125 0.609375 5.9765625 C-0.00421875 6.85054687 -0.6178125 7.72453125 -1.25 8.625 C-1.89195312 9.53378906 -2.53390625 10.44257813 -3.1953125 11.37890625 C-4.59351719 13.4096321 -5.87150953 15.44399751 -7.125 17.5625 C-9 20 -9 20 -11.75 20.875 C-12.4925 20.91625 -13.235 20.9575 -14 21 C-13.67 19.68 -13.34 18.36 -13 17 C-11.68 17 -10.36 17 -9 17 C-8.896875 16.46375 -8.79375 15.9275 -8.6875 15.375 C-7.81180468 12.34987072 -6.52752839 9.7495511 -5 7 C-4.34 6.67 -3.68 6.34 -3 6 C-2.67 5.01 -2.34 4.02 -2 3 C-1.34 2.01 -0.68 1.02 0 0 Z " fill="#DAD90A" transform="translate(708,209)"/>
<path d="M0 0 C0.66 0 1.32 0 2 0 C1.4185168 3.10236168 0.582744 4.8088942 -1.58203125 7.09375 C-2.36223633 7.92712891 -2.36223633 7.92712891 -3.15820312 8.77734375 C-3.70412109 9.34582031 -4.25003906 9.91429687 -4.8125 10.5 C-5.34681641 11.06847656 -5.88113281 11.63695312 -6.43164062 12.22265625 C-9.23848449 15.19867029 -12.08957487 18.12481004 -15 21 C-14.49034798 16.67936795 -13.15879318 14.63115867 -10.1875 11.5 C-9.10662109 10.33791016 -9.10662109 10.33791016 -8.00390625 9.15234375 C-7.01197266 8.08693359 -7.01197266 8.08693359 -6 7 C-4.65807132 5.34024611 -3.32090525 3.67653359 -2 2 C-1.34 1.34 -0.68 0.68 0 0 Z " fill="#D0D105" transform="translate(643,1124)"/>
<path d="M0 0 C4.95 2.64 9.9 5.28 15 8 C13.68 8.33 12.36 8.66 11 9 C9.453125 9.556875 9.453125 9.556875 7.875 10.125 C5 11 5 11 3 10 C3 7.69 3 5.38 3 3 C1.68 3 0.36 3 -1 3 C-0.67 2.01 -0.34 1.02 0 0 Z " fill="#E3E047" transform="translate(576,699)"/>
<path d="M0 0 C3.70100803 3.30447145 5.89047053 6.5465489 8 11 C7.6875 13.6875 7.6875 13.6875 7 16 C7.36856864 18.23167185 7.36856864 18.23167185 8 20 C4.10949591 16.75791326 3.13187185 13.87575564 2 9 C1.79375 8.195625 1.5875 7.39125 1.375 6.5625 C1.25125 6.046875 1.1275 5.53125 1 5 C0.01 5 -0.98 5 -2 5 C-1.34 3.35 -0.68 1.7 0 0 Z " fill="#E3E03D" transform="translate(684,786)"/>
<path d="M0 0 C0.94875 0.04125 1.8975 0.0825 2.875 0.125 C2.875 0.785 2.875 1.445 2.875 2.125 C3.535 2.455 4.195 2.785 4.875 3.125 C4.215 3.125 3.555 3.125 2.875 3.125 C3.205 4.115 3.535 5.105 3.875 6.125 C0.62373648 5.84644822 -2.6256391 5.54987215 -5.875 5.25 C-6.79539062 5.17136719 -7.71578125 5.09273438 -8.6640625 5.01171875 C-9.55351563 4.92792969 -10.44296875 4.84414063 -11.359375 4.7578125 C-12.17631836 4.68449707 -12.99326172 4.61118164 -13.83496094 4.53564453 C-16.24262049 4.10390856 -18.00409392 3.32173616 -20.125 2.125 C-18.53558594 2.15980469 -18.53558594 2.15980469 -16.9140625 2.1953125 C-15.5260487 2.21406944 -14.1380273 2.23226972 -12.75 2.25 C-12.05132813 2.26675781 -11.35265625 2.28351563 -10.6328125 2.30078125 C-8.79602514 2.31844267 -6.95898037 2.22803261 -5.125 2.125 C-3.125 0.125 -3.125 0.125 0 0 Z " fill="#FAF83E" transform="translate(659.125,326.875)"/>
<path d="M0 0 C3.9341561 5.90123415 4.27522305 11.11942374 4 18 C2 16 2 16 1.5 13.9375 C1.335 13.298125 1.17 12.65875 1 12 C0.34 11.67 -0.32 11.34 -1 11 C-1.73075648 8.6859378 -2.40138258 6.35171131 -3 4 C-2.34 4 -1.68 4 -1 4 C-0.67 2.68 -0.34 1.36 0 0 Z " fill="#F9F930" transform="translate(706,829)"/>
<path d="M0 0 C2.3125 2.0625 2.3125 2.0625 4 4 C3.01 5.485 3.01 5.485 2 7 C2.33 7.66 2.66 8.32 3 9 C0.5625 8.25 0.5625 8.25 -2 7 C-2.8125 4.875 -2.8125 4.875 -3 3 C-4.32 2.67 -5.64 2.34 -7 2 C-7 1.34 -7 0.68 -7 0 C-4.23382717 -1.38308641 -2.92591209 -0.90563946 0 0 Z " fill="#E1DE3B" transform="translate(724,448)"/>
<path d="M0 0 C0.66 0.33 1.32 0.66 2 1 C1.01 1.66 0.02 2.32 -1 3 C-1 4.32 -1 5.64 -1 7 C-2.98 7.99 -2.98 7.99 -5 9 C-5.66 8.34 -6.32 7.68 -7 7 C-8.33076989 6.65657551 -9.66431979 6.32380126 -11 6 C-11.99 5.34 -12.98 4.68 -14 4 C-13.11248047 3.81824219 -13.11248047 3.81824219 -12.20703125 3.6328125 C-8.69180288 2.88733177 -5.40231099 2.16263636 -2.0625 0.8125 C-1.381875 0.544375 -0.70125 0.27625 0 0 Z " fill="#C8C837" transform="translate(603,1042)"/>
<path d="M0 0 C3.61621957 1.20540652 4.06985695 2.2255028 6.0625 5.375 C6.56910156 6.16648437 7.07570313 6.95796875 7.59765625 7.7734375 C8.06042969 8.50820313 8.52320313 9.24296875 9 10 C9.99 11.485 9.99 11.485 11 13 C9.02 13 7.04 13 5 13 C4.35004703 11.58521865 3.70521278 10.16808513 3.0625 8.75 C2.70285156 7.96109375 2.34320312 7.1721875 1.97265625 6.359375 C1.09966721 4.24176302 0.48661492 2.23330638 0 0 Z " fill="#D3D149" transform="translate(563,685)"/>
<path d="M0 0 C0.66 0 1.32 0 2 0 C0.58397787 3.14906415 -1.13735082 5.49523672 -3.4375 8.0625 C-4.03433594 8.73410156 -4.63117188 9.40570313 -5.24609375 10.09765625 C-6.79296942 11.7754479 -8.37171566 13.40159243 -10 15 C-9.49357808 10.64477147 -8.61588503 7.55760365 -6 4 C-5.34 4 -4.68 4 -4 4 C-3.34 3.34 -2.68 2.68 -2 2 C-1.34 1.34 -0.68 0.68 0 0 Z " fill="#BDBC08" transform="translate(457,401)"/>
<path d="M0 0 C0.66 0.33 1.32 0.66 2 1 C-0.89452253 6.95931109 -5.37794152 9.9988504 -11.4375 12.3125 C-12.7059375 12.6528125 -12.7059375 12.6528125 -14 13 C-11.24160796 9.31999566 -8.37924618 6.50494111 -4.75 3.6875 C-3.41195313 2.64142578 -3.41195313 2.64142578 -2.046875 1.57421875 C-1.37140625 1.05472656 -0.6959375 0.53523438 0 0 Z " fill="#BCB804" transform="translate(476,274)"/>
<path d="M0 0 C0.99 0.33 1.98 0.66 3 1 C1.54648985 2.98287496 0.08752713 4.96129387 -1.375 6.9375 C-1.7875 7.50146484 -2.2 8.06542969 -2.625 8.64648438 C-5.7734375 12.88671875 -5.7734375 12.88671875 -8 14 C-7.46968862 9.4923533 -5.74778884 6.58045212 -3 3 C-2.34 3 -1.68 3 -1 3 C-0.67 2.01 -0.34 1.02 0 0 Z " fill="#CACC06" transform="translate(654,1110)"/>
<path d="M0 0 C-1.45432419 2.90864839 -3.72376269 3.28406705 -6.65625 4.3359375 C-10.38779817 5.39320948 -14.14052938 5.74091517 -18 6 C-17.34 5.67 -16.68 5.34 -16 5 C-16 4.34 -16 3.68 -16 3 C-13.71068726 2.30364247 -11.4191243 1.61765623 -9.125 0.9375 C-8.47402344 0.73833984 -7.82304687 0.53917969 -7.15234375 0.33398438 C-2.2265625 -1.11328125 -2.2265625 -1.11328125 0 0 Z " fill="#C4C603" transform="translate(473,796)"/>
<path d="M0 0 C0.33 0.66 0.66 1.32 1 2 C-0.81378309 7.13905209 -3.26661895 11.97068021 -7 16 C-7.99 16.33 -8.98 16.66 -10 17 C-8.51364884 12.78345644 -6.38750841 9.37521395 -3.875 5.6875 C-3.15054687 4.61886719 -2.42609375 3.55023438 -1.6796875 2.44921875 C-0.84824219 1.23685547 -0.84824219 1.23685547 0 0 Z " fill="#BEC010" transform="translate(413,343)"/>
<path d="M0 0 C2.97 0.495 2.97 0.495 6 1 C6 1.66 6 2.32 6 3 C7.32 3.33 8.64 3.66 10 4 C9.34 4 8.68 4 8 4 C8 4.66 8 5.32 8 6 C5.69 6 3.38 6 1 6 C0 1.125 0 1.125 0 0 Z " fill="#F9F75B" transform="translate(435,564)"/>
<path d="M0 0 C11.55 0.33 23.1 0.66 35 1 C35 1.33 35 1.66 35 2 C18.665 2.495 18.665 2.495 2 3 C2 2.34 2 1.68 2 1 C1.34 0.67 0.68 0.34 0 0 Z " fill="#8C8B22" transform="translate(439,564)"/>
<path d="M0 0 C0.33 0.66 0.66 1.32 1 2 C2.65 1.67 4.3 1.34 6 1 C6 1.66 6 2.32 6 3 C7.32 3.33 8.64 3.66 10 4 C9.01 4.33 8.02 4.66 7 5 C7 5.99 7 6.98 7 8 C3.20411134 7.45773019 1.52788007 5.79872437 -1 3 C-0.67 2.01 -0.34 1.02 0 0 Z " fill="#FAF84E" transform="translate(631,321)"/>
<path d="M0 0 C0.66 0.33 1.32 0.66 2 1 C2 7.27 2 13.54 2 20 C1.34 20.33 0.68 20.66 0 21 C-1.125 15.25 -1.125 15.25 0 13 C0.21377721 7.39296787 0.21377721 7.39296787 -1 2 C-0.67 1.34 -0.34 0.68 0 0 Z " fill="#FAF912" transform="translate(709,186)"/>
<path d="M0 0 C2.92879371 0.62759865 5.36095629 1.58622659 8 3 C7.67 5.31 7.34 7.62 7 10 C4.4000702 7.48972295 2.00908773 5.0136316 0 2 C0 1.34 0 0.68 0 0 Z " fill="#FBF942" transform="translate(671,776)"/>
<path d="M0 0 C0.33 0 0.66 0 1 0 C1.05451714 2.04136395 1.09302485 4.08315856 1.125 6.125 C1.14820313 7.26195312 1.17140625 8.39890625 1.1953125 9.5703125 C0.93552774 14.13213294 0.28515921 17.71484079 -3 21 C-2.68981396 18.4372008 -2.37693109 15.8747789 -2.0625 13.3125 C-1.97548828 12.59126953 -1.88847656 11.87003906 -1.79882812 11.12695312 C-1.33686195 7.37989416 -0.80832321 3.69207089 0 0 Z " fill="#AEAE05" transform="translate(361,470)"/>
<path d="M0 0 C0.99 0.66 1.98 1.32 3 2 C0.87767021 3.17176518 -1.24757791 4.33754785 -3.375 5.5 C-3.97828125 5.83386719 -4.5815625 6.16773438 -5.203125 6.51171875 C-9.7734375 9 -9.7734375 9 -12 9 C-12 8.34 -12 7.68 -12 7 C-11.34 7 -10.68 7 -10 7 C-10 6.34 -10 5.68 -10 5 C-6.7 3.35 -3.4 1.7 0 0 Z " fill="#B1B103" transform="translate(515,1216)"/>
<path d="M0 0 C1.36420006 4.09260018 -0.2335485 6.47012659 -1.9375 10.1875 C-2.22818359 10.84169922 -2.51886719 11.49589844 -2.81835938 12.16992188 C-3.53695343 13.78381344 -4.2673588 15.39243655 -5 17 C-5.33 17 -5.66 17 -6 17 C-6 15.02 -6 13.04 -6 11 C-5.34 11 -4.68 11 -4 11 C-3.855625 9.906875 -3.71125 8.81375 -3.5625 7.6875 C-3 4 -3 4 -2 1 C-1.34 0.67 -0.68 0.34 0 0 Z " fill="#B2B205" transform="translate(694,1039)"/>
<path d="M0 0 C-2.76854598 2.14909962 -5.57834526 4.01778828 -8.625 5.75 C-9.40101563 6.19859375 -10.17703125 6.6471875 -10.9765625 7.109375 C-11.64429688 7.40328125 -12.31203125 7.6971875 -13 8 C-13.66 7.67 -14.32 7.34 -15 7 C-12.82104432 3.73156648 -11.50412161 2.96828392 -8.0625 1.25 C-7.18722656 0.80140625 -6.31195313 0.3528125 -5.41015625 -0.109375 C-3 -1 -3 -1 0 0 Z " fill="#B4B202" transform="translate(425,1267)"/>
<path d="M0 0 C0.66 0.33 1.32 0.66 2 1 C-1.01369128 4.36142489 -3.9727657 6.02922577 -8 8 C-9.81554159 9.56102491 -9.81554159 9.56102491 -11 11 C-11.66 10.67 -12.32 10.34 -13 10 C-11.58829091 8.70291686 -10.17041804 7.41254022 -8.75 6.125 C-7.96109375 5.40570312 -7.1721875 4.68640625 -6.359375 3.9453125 C-4.26285918 2.21672826 -2.53958562 0.94420491 0 0 Z " fill="#BCBB01" transform="translate(377,1208)"/>
<path d="M0 0 C2.64 0 5.28 0 8 0 C6.7934375 0.9590625 6.7934375 0.9590625 5.5625 1.9375 C2.5068643 4.07124067 2.5068643 4.07124067 1.68359375 7.28515625 C1.60238281 8.20167969 1.52117187 9.11820313 1.4375 10.0625 C1.35371094 10.98160156 1.26992188 11.90070312 1.18359375 12.84765625 C1.12300781 13.55792969 1.06242187 14.26820313 1 15 C0.67 15 0.34 15 0 15 C0 10.05 0 5.1 0 0 Z " fill="#979E21" transform="translate(422,514)"/>
<path d="M0 0 C2.14867155 3.22300732 2.40779872 4.78318881 2.75 8.5625 C2.84796875 9.53316406 2.9459375 10.50382812 3.046875 11.50390625 C3 14 3 14 1 16 C-1.0662997 10.28728907 -1.0006709 5.96345767 0 0 Z " fill="#BCBB1F" transform="translate(739,467)"/>
<path d="M0 0 C2.97 1.65 5.94 3.3 9 5 C6.07914607 6.94723595 4.40667322 7.55175352 1 8 C0 7 0 7 -0.0625 3.4375 C-0.041875 2.303125 -0.02125 1.16875 0 0 Z " fill="#D0CC40" transform="translate(628,316)"/>
<path d="M0 0 C0.763125 0.20625 1.52625 0.4125 2.3125 0.625 C1.6525 2.605 0.9925 4.585 0.3125 6.625 C-1.6675 5.635 -3.6475 4.645 -5.6875 3.625 C-5.6875 2.965 -5.6875 2.305 -5.6875 1.625 C-2.6875 -0.375 -2.6875 -0.375 0 0 Z " fill="#FAF74C" transform="translate(588.6875,707.375)"/>
<path d="M0 0 C0.33 0 0.66 0 1 0 C1.19532961 1.7699868 1.38098882 3.54104279 1.5625 5.3125 C1.66691406 6.29863281 1.77132813 7.28476563 1.87890625 8.30078125 C2 11 2 11 1 14 C0.34 14 -0.32 14 -1 14 C-1.33 14.99 -1.66 15.98 -2 17 C-3.59190467 13.81619067 -2.28749598 10.71923676 -1.5625 7.375 C-1.41490234 6.66859375 -1.26730469 5.9621875 -1.11523438 5.234375 C-0.74950507 3.48831251 -0.37552879 1.74398116 0 0 Z " fill="#B3B903" transform="translate(450,1145)"/>
<path d="M0 0 C-1.45044271 4.10958767 -3.51110752 7.43258745 -6 11 C-6.6875 9.375 -6.6875 9.375 -7 7 C-4.11764706 0 -4.11764706 0 0 0 Z " fill="#C3C507" transform="translate(667,1095)"/>
<path d="M0 0 C0.66 0.33 1.32 0.66 2 1 C1.39301257 5.12751449 -0.03810791 8.3321148 -2 12 C-4 9 -4 9 -3.625 6.8125 C-3.41875 6.214375 -3.2125 5.61625 -3 5 C-2.34 5 -1.68 5 -1 5 C-0.67 3.35 -0.34 1.7 0 0 Z " fill="#BBBC06" transform="translate(685,1057)"/>
<path d="M0 0 C1.26977059 3.80931176 0.52074507 5.81618993 -0.4375 9.6875 C-0.86869141 11.45673828 -0.86869141 11.45673828 -1.30859375 13.26171875 C-1.53675781 14.16535156 -1.76492188 15.06898438 -2 16 C-2.33 16 -2.66 16 -3 16 C-4.28571429 8.57142857 -4.28571429 8.57142857 -3 5 C-2.34 5 -1.68 5 -1 5 C-1.33 3.68 -1.66 2.36 -2 1 C-1.34 0.67 -0.68 0.34 0 0 Z " fill="#B1B405" transform="translate(709,989)"/>
<path d="M0 0 C0.53625 0.226875 1.0725 0.45375 1.625 0.6875 C-0.025 1.0175 -1.675 1.3475 -3.375 1.6875 C-3.375 2.6775 -3.375 3.6675 -3.375 4.6875 C-6.08379335 6.04189668 -8.38433268 5.75251451 -11.375 5.6875 C-8.45877964 2.28524292 -4.62034368 -0.60793996 0 0 Z " fill="#BEBD2F" transform="translate(350.375,926.3125)"/>
<path d="M0 0 C0.33 0 0.66 0 1 0 C1.02712351 2.39591038 1.0468982 4.79150957 1.0625 7.1875 C1.07087891 7.86103516 1.07925781 8.53457031 1.08789062 9.22851562 C1.10606538 12.95434131 0.89299392 16.3788042 0 20 C-0.66 19.67 -1.32 19.34 -2 19 C-1.855625 17.906875 -1.71125 16.81375 -1.5625 15.6875 C-0.90689307 10.470742 -0.45251777 5.23765253 0 0 Z " fill="#F4F517" transform="translate(421,516)"/>
<path d="M0 0 C2 2 2 2 2.1953125 5.4765625 C2.18201493 6.85950968 2.15816232 8.24238654 2.125 9.625 C2.11597656 10.33140625 2.10695313 11.0378125 2.09765625 11.765625 C2.07407603 13.51056098 2.03820461 15.25532295 2 17 C1.67 17 1.34 17 1 17 C0.92652344 15.95199219 0.92652344 15.95199219 0.8515625 14.8828125 C0.73941406 13.51769531 0.73941406 13.51769531 0.625 12.125 C0.55539062 11.22007812 0.48578125 10.31515625 0.4140625 9.3828125 C0.20431868 6.82058097 0.20431868 6.82058097 -2 5 C-2 3.68 -2 2.36 -2 1 C-1.34 0.67 -0.68 0.34 0 0 Z " fill="#FAFA35" transform="translate(681,348)"/>
<path d="M0 0 C0.93045933 2.55144824 1.08564091 3.74006478 0.22265625 6.359375 C-0.16019531 7.14828125 -0.54304687 7.9371875 -0.9375 8.75 C-1.50791016 9.94882812 -1.50791016 9.94882812 -2.08984375 11.171875 C-2.39019531 11.77515625 -2.69054687 12.3784375 -3 13 C-3.33 13 -3.66 13 -4 13 C-4.49230769 5.73846154 -4.49230769 5.73846154 -2 2 C-1.34 1.34 -0.68 0.68 0 0 Z " fill="#CBC909" transform="translate(623,272)"/>
<path d="M0 0 C0.66 0.66 1.32 1.32 2 2 C-0.01699115 3.00849558 -2.03332963 4.01615982 -4.0625 5 C-6.23163505 6.07403709 -6.23163505 6.07403709 -9 8 C-9 5 -9 5 -7.3125 2.875 C-4.76263954 0.80754557 -3.26091463 0.17162709 0 0 Z " fill="#A3A109" transform="translate(635,263)"/>
<path d="M0 0 C0.66 0.33 1.32 0.66 2 1 C-0.25740623 3.33524782 -2.2805761 5.18705073 -5 7 C-7.1875 6.625 -7.1875 6.625 -9 6 C-3.30379747 1.25316456 -3.30379747 1.25316456 0 0 Z " fill="#C5C601" transform="translate(415,1187)"/>
<path d="M0 0 C0.33 0 0.66 0 1 0 C1.37851209 5.93002267 0.10575375 10.47239641 -2 16 C-2.33 16 -2.66 16 -3 16 C-3.37851209 10.06997733 -2.10575375 5.52760359 0 0 Z " fill="#C2C303" transform="translate(701,1015)"/>
<path d="M0 0 C4.875 4.625 4.875 4.625 6 8 C5.01 8.99 4.02 9.98 3 11 C2.87625 10.21625 2.7525 9.4325 2.625 8.625 C2.20882007 5.85942178 2.20882007 5.85942178 0 4 C-0.33 3.34 -0.66 2.68 -1 2 C-0.67 1.34 -0.34 0.68 0 0 Z " fill="#D3CE40" transform="translate(636,573)"/>
<path d="M0 0 C4.51478398 0.53115106 7.34666857 2.36620292 11 5 C7.18510326 6.46726798 4.70988378 5.43336419 1 4 C1.33 3.01 1.66 2.02 2 1 C1.34 0.67 0.68 0.34 0 0 Z " fill="#BAB636" transform="translate(625,567)"/>
<path d="M0 0 C2.97 0.495 2.97 0.495 6 1 C5.67 1.99 5.34 2.98 5 4 C4.34 4 3.68 4 3 4 C3 4.66 3 5.32 3 6 C2.01 6 1.02 6 0 6 C-1.125 2.25 -1.125 2.25 0 0 Z " fill="#ECEA4F" transform="translate(663,328)"/>
<path d="M0 0 C3.58237455 4.67266246 4.11073636 7.02023637 4 13 C1.96180154 10.96180154 1.32158941 9.70582202 0.3125 7.0625 C0.04050781 6.37285156 -0.23148438 5.68320312 -0.51171875 4.97265625 C-1 3 -1 3 0 0 Z " fill="#F9F737" transform="translate(692,803)"/>
<path d="M0 0 C0.33 0 0.66 0 1 0 C1.24959784 2.0809844 1.47394907 4.16500812 1.6875 6.25 C1.81511719 7.41015625 1.94273437 8.5703125 2.07421875 9.765625 C2 13 2 13 -1 17 C-0.67 11.39 -0.34 5.78 0 0 Z " fill="#A6A503" transform="translate(355,506)"/>
<path d="M0 0 C-0.9375 2.0625 -0.9375 2.0625 -3 4 C-6.07110598 4.05989746 -8.99011728 3.58052245 -12 3 C-11.67 2.34 -11.34 1.68 -11 1 C-7.318488 -0.05186057 -3.80944893 -0.08859184 0 0 Z " fill="#F7F552" transform="translate(719,447)"/>
<path d="M0 0 C0.66 0.33 1.32 0.66 2 1 C1.21625 1.7425 0.4325 2.485 -0.375 3.25 C-3.02601199 5.71783247 -3.02601199 5.71783247 -4 8.25 C-5 10 -5 10 -7.625 10.75 C-8.40875 10.8325 -9.1925 10.915 -10 11 C-6.79239749 7.19364503 -3.59253891 3.45436433 0 0 Z " fill="#A1A006" transform="translate(457,290)"/>
<path d="M0 0 C0.66 0.33 1.32 0.66 2 1 C0.55049545 4.7910119 -1.15172566 8.3874638 -3 12 C-3.33 12 -3.66 12 -4 12 C-3.28571429 3.42857143 -3.28571429 3.42857143 0 0 Z " fill="#BCBC02" transform="translate(568,648)"/>
<path d="M0 0 C0.66 0 1.32 0 2 0 C3.65 3.63 5.3 7.26 7 11 C5.35 11 3.7 11 2 11 C2.33 9.35 2.66 7.7 3 6 C2.34 6 1.68 6 1 6 C0.67 4.02 0.34 2.04 0 0 Z " fill="#BEBA44" transform="translate(421,546)"/>
<path d="M0 0 C1.31223496 3.93670488 0.24296256 6.12488144 -1 10 C-1.99 10 -2.98 10 -4 10 C-3.71872579 8.51882199 -3.42466268 7.04006751 -3.125 5.5625 C-2.96257812 4.73878906 -2.80015625 3.91507812 -2.6328125 3.06640625 C-2.42398437 2.38449219 -2.21515625 1.70257813 -2 1 C-1.34 0.67 -0.68 0.34 0 0 Z " fill="#CDCD0C" transform="translate(439,434)"/>
<path d="M0 0 C1.1484375 1.734375 1.1484375 1.734375 2 4 C1.1015625 6.140625 1.1015625 6.140625 -0.375 8.25 C-0.85710938 8.95640625 -1.33921875 9.6628125 -1.8359375 10.390625 C-2.22007812 10.92171875 -2.60421875 11.4528125 -3 12 C-3.66 11.01 -4.32 10.02 -5 9 C-4.01 8.67 -3.02 8.34 -2 8 C-2.309375 7.071875 -2.309375 7.071875 -2.625 6.125 C-2.810625 5.073125 -2.810625 5.073125 -3 4 C-2.34 3.34 -1.68 2.68 -1 2 C-0.67 1.34 -0.34 0.68 0 0 Z " fill="#C5C306" transform="translate(708,209)"/>
<path d="M0 0 C0.66 0.33 1.32 0.66 2 1 C-0.77280706 4.08089673 -3.06326356 5.68775452 -7 7 C-7.66 6.34 -8.32 5.68 -9 5 C-7.54735962 4.1361871 -6.0876837 3.28419546 -4.625 2.4375 C-3.40683594 1.72400391 -3.40683594 1.72400391 -2.1640625 0.99609375 C-1.44992187 0.66738281 -0.73578125 0.33867188 0 0 Z " fill="#C4C601" transform="translate(426,1181)"/>
<path d="M0 0 C0.99 0 1.98 0 3 0 C1.66511872 3.59391114 0.03977277 6.75490696 -2 10 C-2.6875 8.375 -2.6875 8.375 -3 6 C-1.5625 2.75 -1.5625 2.75 0 0 Z " fill="#BEBE05" transform="translate(670,1085)"/>
<path d="M0 0 C0.66 0.33 1.32 0.66 2 1 C2 2.66666667 2 4.33333333 2 6 C0.02 6.99 0.02 6.99 -2 8 C-2.33 7.01 -2.66 6.02 -3 5 C-1.5625 2.3125 -1.5625 2.3125 0 0 Z " fill="#DEDF41" transform="translate(398,1052)"/>
<path d="M0 0 C1.32 0 2.64 0 4 0 C4.73080266 1.97746603 5.39421747 3.98072489 6 6 C5.67 6.66 5.34 7.32 5 8 C4.34 8 3.68 8 3 8 C0 2.25 0 2.25 0 0 Z " fill="#F7F636" transform="translate(700,825)"/>
<path d="M0 0 C0.66 0.33 1.32 0.66 2 1 C-0.77280706 4.08089673 -3.06326356 5.68775452 -7 7 C-7.66 6.34 -8.32 5.68 -9 5 C-7.54735962 4.1361871 -6.0876837 3.28419546 -4.625 2.4375 C-3.40683594 1.72400391 -3.40683594 1.72400391 -2.1640625 0.99609375 C-1.44992187 0.66738281 -0.73578125 0.33867188 0 0 Z " fill="#C2C201" transform="translate(388,1202)"/>
<path d="M0 0 C0.556875 0.226875 1.11375 0.45375 1.6875 0.6875 C-1.2825 3.1625 -1.2825 3.1625 -4.3125 5.6875 C-5.3025 4.6975 -6.2925 3.7075 -7.3125 2.6875 C-2.88173077 -0.38942308 -2.88173077 -0.38942308 0 0 Z " fill="#C9CB02" transform="translate(480.3125,791.3125)"/>
<path d="M0 0 C1.65 1.65 3.3 3.3 5 5 C4.67 5.66 4.34 6.32 4 7 C1.4375 7.625 1.4375 7.625 -1 8 C-0.67 5.36 -0.34 2.72 0 0 Z " fill="#CCC73C" transform="translate(679,779)"/>
<path d="M0 0 C1.65 0 3.3 0 5 0 C1.54319097 2.76544722 -2.14341602 4.84921278 -6 7 C-5.67 5.68 -5.34 4.36 -5 3 C-3.35 2.67 -1.7 2.34 0 2 C0 1.34 0 0.68 0 0 Z " fill="#BBB902" transform="translate(578,641)"/>
<path d="M0 0 C0.33 0 0.66 0 1 0 C1.125 6.75 1.125 6.75 0 9 C-0.66 9 -1.32 9 -2 9 C-2.33 10.32 -2.66 11.64 -3 13 C-4 11 -4 11 -3.22265625 8.3984375 C-2.83980469 7.40070313 -2.45695312 6.40296875 -2.0625 5.375 C-1.68222656 4.37210937 -1.30195313 3.36921875 -0.91015625 2.3359375 C-0.60980469 1.56507813 -0.30945313 0.79421875 0 0 Z " fill="#A5A707" transform="translate(379,407)"/>
<path d="M0 0 C2.33333823 2.12121657 3.9148886 4.01594365 5 7 C4.625 9.25 4.625 9.25 4 11 C2 10 2 10 0.875 7.1875 C0 4 0 4 0 0 Z " fill="#B8B544" transform="translate(678,339)"/>
<path d="M0 0 C0.33 0.66 0.66 1.32 1 2 C-0.98 4.97 -0.98 4.97 -3 8 C-3.33 7.34 -3.66 6.68 -4 6 C-4.66 5.67 -5.32 5.34 -6 5 C-4.02 3.35 -2.04 1.7 0 0 Z " fill="#E2E149" transform="translate(617,1032)"/>
<path d="M0 0 C0.66 0.33 1.32 0.66 2 1 C1.34 4.3 0.68 7.6 0 11 C-0.66 10.34 -1.32 9.68 -2 9 C-1.45652174 2.91304348 -1.45652174 2.91304348 0 0 Z " fill="#BABC04" transform="translate(704,1005)"/>
<path d="M0 0 C4.42857143 5.14285714 4.42857143 5.14285714 5 9 C1.31197956 7.77065985 0.27643027 6.06140622 -2 3 C-1 1 -1 1 0 0 Z " fill="#BFBB30" transform="translate(692,799)"/>
<path d="M0 0 C2.79872437 2.52788007 4.45773019 4.20411134 5 8 C4.01 7.67 3.02 7.34 2 7 C1.67 6.34 1.34 5.68 1 5 C0.01 5 -0.98 5 -2 5 C-1.34 3.35 -0.68 1.7 0 0 Z " fill="#C5C239" transform="translate(684,786)"/>
<path d="M0 0 C3.2910841 3.60957611 4.54663921 6.12637153 5 11 C2.38114512 8.63055987 0.58133449 6.16266898 -1 3 C-0.67 2.01 -0.34 1.02 0 0 Z " fill="#B2B309" transform="translate(376,640)"/>
<path d="M0 0 C0.8971875 0.5259375 0.8971875 0.5259375 1.8125 1.0625 C-1.37512365 3.18758244 -3.45262223 3.5645163 -7.1875 4.0625 C-6.375 2.125 -6.375 2.125 -5.1875 0.0625 C-2.1875 -0.9375 -2.1875 -0.9375 0 0 Z " fill="#A0A103" transform="translate(634.1875,626.9375)"/>
<path d="M0 0 C1.4857955 3.96212133 1.00143173 7.96859533 0 12 C-1.5625 14 -1.5625 14 -3 15 C-2.44854729 9.76119922 -1.57077907 5.02649303 0 0 Z " fill="#A0A004" transform="translate(369,437)"/>
<path d="M0 0 C-0.33 0.99 -0.66 1.98 -1 3 C-1.66 2.67 -2.32 2.34 -3 2 C-3.66 3.32 -4.32 4.64 -5 6 C-8 6 -8 6 -10 5 C-8.71186658 4.16121545 -7.41936744 3.32913217 -6.125 2.5 C-5.40570312 2.0359375 -4.68640625 1.571875 -3.9453125 1.09375 C-2 0 -2 0 0 0 Z " fill="#B8B705" transform="translate(653,169)"/>
<path d="M0 0 C1.32 0.66 2.64 1.32 4 2 C2.54735962 2.8638129 1.0876837 3.71580454 -0.375 4.5625 C-1.59316406 5.27599609 -1.59316406 5.27599609 -2.8359375 6.00390625 C-3.55007813 6.33261719 -4.26421875 6.66132812 -5 7 C-5.66 6.67 -6.32 6.34 -7 6 C-4.82575883 3.49962266 -3.26954202 2.56371414 0 2 C0 1.34 0 0.68 0 0 Z " fill="#AFB005" transform="translate(475,1237)"/>
<path d="M0 0 C0.66 1.32 1.32 2.64 2 4 C0.71937515 5.7074998 -0.61767557 7.37373596 -2 9 C-2.66 9 -3.32 9 -4 9 C-2.94124926 5.59687262 -1.99097846 2.98646769 0 0 Z " fill="#D1D321" transform="translate(331,939)"/>
<path d="M0 0 C2.31 0 4.62 0 7 0 C7.33 0.66 7.66 1.32 8 2 C7.34 2.66 6.68 3.32 6 4 C4 3.8125 4 3.8125 2 3 C1.34 2.01 0.68 1.02 0 0 Z " fill="#F2F048" transform="translate(568,698)"/>
<path d="M0 0 C0.99 0 1.98 0 3 0 C2 3 2 3 -0.4375 4.75 C-1.7059375 5.36875 -1.7059375 5.36875 -3 6 C-3.66 5.67 -4.32 5.34 -5 5 C-4.67 4.01 -4.34 3.02 -4 2 C-2.68 2 -1.36 2 0 2 C0 1.34 0 0.68 0 0 Z " fill="#BDBE0A" transform="translate(668,385)"/>
<path d="M0 0 C1 2 1 2 0.546875 3.91015625 C0.28390625 4.62042969 0.0209375 5.33070313 -0.25 6.0625 C-0.62898438 7.13177734 -0.62898438 7.13177734 -1.015625 8.22265625 C-2 10 -2 10 -5 11 C-3.77472971 6.94718288 -2.30119506 3.55639236 0 0 Z " fill="#9FA207" transform="translate(397,369)"/>
<path d="M0 0 C2.475 0.495 2.475 0.495 5 1 C5 2.98 5 4.96 5 7 C2.5 5.1875 2.5 5.1875 0 3 C0 2.01 0 1.02 0 0 Z " fill="#F9F751" transform="translate(623,315)"/>
<path d="M0 0 C1.32 0.33 2.64 0.66 4 1 C-0.455 3.97 -0.455 3.97 -5 7 C-5.33 6.01 -5.66 5.02 -6 4 C-5.01 4 -4.02 4 -3 4 C-3 3.34 -3 2.68 -3 2 C-2.01 2 -1.02 2 0 2 C0 1.34 0 0.68 0 0 Z " fill="#B5B50A" transform="translate(657,248)"/>
<path d="M0 0 C1.1875 1.6875 1.1875 1.6875 2 4 C0.6875 6.75 0.6875 6.75 -1 9 C-1.33 9 -1.66 9 -2 9 C-2.25 3.375 -2.25 3.375 0 0 Z " fill="#C0C008" transform="translate(675,1076)"/>
<path d="M0 0 C2.40034102 3.60051153 4.32187705 6.96144535 3.625 11.375 C3.41875 11.91125 3.2125 12.4475 3 13 C2.67 11.35 2.34 9.7 2 8 C1.34 8 0.68 8 0 8 C0 5.36 0 2.72 0 0 Z " fill="#A19D24" transform="translate(706,829)"/>
<path d="M0 0 C0.33 0.66 0.66 1.32 1 2 C3.02463255 2.65213292 3.02463255 2.65213292 5 3 C4.67 4.65 4.34 6.3 4 8 C1.10067643 5.60490662 0.49831724 3.68754757 0 0 Z " fill="#F9F844" transform="translate(697,816)"/>
<path d="M0 0 C-1 3 -1 3 -4.0625 4.6875 C-5.031875 5.120625 -6.00125 5.55375 -7 6 C-7 4.68 -7 3.36 -7 2 C-4.35261084 0.5393715 -3.10551666 0 0 0 Z " fill="#CDCD0D" transform="translate(668,243)"/>
<path d="M0 0 C-2.52956528 3.0916909 -5.22454612 3.90931332 -9 5 C-7.35234966 0.05704899 -4.76872479 -0.25776891 0 0 Z " fill="#AEAD03" transform="translate(458,1249)"/>
<path d="M0 0 C1.98 0 3.96 0 6 0 C2.8745041 2.64465038 -0.08788267 3.84414715 -4 5 C-4 4.34 -4 3.68 -4 3 C-2.68 2.67 -1.36 2.34 0 2 C0 1.34 0 0.68 0 0 Z " fill="#B4B404" transform="translate(462,1244)"/>
<path d="M0 0 C1.98 0 3.96 0 6 0 C2.8745041 2.64465038 -0.08788267 3.84414715 -4 5 C-4 4.34 -4 3.68 -4 3 C-2.68 2.67 -1.36 2.34 0 2 C0 1.34 0 0.68 0 0 Z " fill="#B0B101" transform="translate(522,1212)"/>
<path d="M0 0 C0.99 0 1.98 0 3 0 C2.67 3.96 2.34 7.92 2 12 C1.67 12 1.34 12 1 12 C0.67 8.04 0.34 4.08 0 0 Z " fill="#A4A604" transform="translate(712,959)"/>
<path d="M0 0 C2.95183101 2.95183101 3.08663988 5.95511947 4 10 C3.34 9.67 2.68 9.34 2 9 C2 8.01 2 7.02 2 6 C1.01 6.33 0.02 6.66 -1 7 C-1 4.37886292 -0.68707555 2.49064888 0 0 Z " fill="#B3AF2F" transform="translate(702,819)"/>
<path d="M0 0 C0.66 0.33 1.32 0.66 2 1 C0.58159741 3.83680518 -1.18641385 4.62592304 -4 6 C-6.16796875 5.58203125 -6.16796875 5.58203125 -8 5 C-6.71475739 4.13619741 -5.42157581 3.28419631 -4.125 2.4375 C-3.04605469 1.72400391 -3.04605469 1.72400391 -1.9453125 0.99609375 C-1.30335938 0.66738281 -0.66140625 0.33867187 0 0 Z " fill="#ACAB03" transform="translate(634,179)"/>
<path d="M0 0 C-5.14285714 4.42857143 -5.14285714 4.42857143 -9 5 C-7.35234966 0.05704899 -4.76872479 -0.25776891 0 0 Z " fill="#AEAF03" transform="translate(537,1207)"/>
<path d="M0 0 C-5.2734375 3.22265625 -5.2734375 3.22265625 -7 4 C-7.66 3.67 -8.32 3.34 -9 3 C-5.83583464 -0.30799106 -4.50236011 -1.35070803 0 0 Z " fill="#A8A903" transform="translate(552,1200)"/>
<path d="M0 0 C-0.33 0.99 -0.66 1.98 -1 3 C-2.65 3 -4.3 3 -6 3 C-6 2.01 -6 1.02 -6 0 C-2.25 -1.125 -2.25 -1.125 0 0 Z " fill="#F8F750" transform="translate(598,1049)"/>
<path d="M0 0 C2.475 0.495 2.475 0.495 5 1 C4.67 2.65 4.34 4.3 4 6 C3.34 6 2.68 6 2 6 C0 3 0 3 0 0 Z " fill="#FCFA55" transform="translate(679,785)"/>
<path d="M0 0 C0.66 0.33 1.32 0.66 2 1 C1.38722388 3.96175123 0.74627478 5.38058783 -1 8 C-1.66 8 -2.32 8 -3 8 C-1.125 2.25 -1.125 2.25 0 0 Z " fill="#ADB004" transform="translate(490,775)"/>
<path d="M0 0 C2 2 2 2 2 6 C2.99 6.33 3.98 6.66 5 7 C4.34 8.65 3.68 10.3 3 12 C0.60926555 8.17482487 0.44033448 4.40334476 0 0 Z " fill="#9D9D03" transform="translate(356,588)"/>
<path d="M0 0 C0.99 0.33 1.98 0.66 3 1 C3.33 2.98 3.66 4.96 4 7 C2.68 6.67 1.36 6.34 0 6 C0 4.68 0 3.36 0 2 C-0.66 1.67 -1.32 1.34 -2 1 C-1.34 0.67 -0.68 0.34 0 0 Z " fill="#F6F344" transform="translate(624,567)"/>
<path d="M0 0 C0.66 0.33 1.32 0.66 2 1 C0.12050295 4.57104439 -1.17053157 6.54744301 -5 8 C-3.8141763 4.62496331 -2.72426311 2.35277269 0 0 Z " fill="#D2D006" transform="translate(476,274)"/>
<path d="M0 0 C0 0.66 0 1.32 0 2 C-4.15267176 5.11450382 -4.15267176 5.11450382 -7.3125 4.6875 C-7.869375 4.460625 -8.42625 4.23375 -9 4 C-2.25 0 -2.25 0 0 0 Z " fill="#B0AE04" transform="translate(565,221)"/>
<path d="M0 0 C2.375 0.3125 2.375 0.3125 5 1 C5.66 1.99 6.32 2.98 7 4 C5.68 4 4.36 4 3 4 C1.25 2 1.25 2 0 0 Z " fill="#C2C105" transform="translate(363,1269)"/>
<path d="M0 0 C0.99 0.33 1.98 0.66 3 1 C2.25 6.75 2.25 6.75 0 9 C-1.10844919 5.67465243 -0.84454356 3.37817425 0 0 Z " fill="#AFB307" transform="translate(695,1030)"/>
<path d="M0 0 C0.6875 1.75 0.6875 1.75 1 4 C-0.4375 6.25 -0.4375 6.25 -2 8 C-2.6875 6.25 -2.6875 6.25 -3 4 C-1.5625 1.75 -1.5625 1.75 0 0 Z " fill="#D5D509" transform="translate(446,414)"/>
<path d="M0 0 C4.875 4.75 4.875 4.75 6 7 C4.35 6.67 2.7 6.34 1 6 C0.67 4.02 0.34 2.04 0 0 Z " fill="#BFBA4F" transform="translate(622,309)"/>
<path d="M0 0 C-0.625 1.9375 -0.625 1.9375 -2 4 C-5.125 4.75 -5.125 4.75 -8 5 C-3.375 0 -3.375 0 0 0 Z " fill="#C1C005" transform="translate(486,269)"/>
<path d="M0 0 C-2.62198774 2.15377564 -4.64404172 3.40072174 -8 4 C-7 1 -7 1 -5.125 -0.25 C-3 -1 -3 -1 0 0 Z " fill="#C3C203" transform="translate(425,1267)"/>
<path d="M0 0 C0.6875 1.8125 0.6875 1.8125 1 4 C-0.4375 5.75 -0.4375 5.75 -2 7 C-2.66 6.67 -3.32 6.34 -4 6 C-2.84826645 3.53199953 -1.95216435 1.95216435 0 0 Z " fill="#C4C53A" transform="translate(395,1055)"/>
<path d="M0 0 C1.98 0.495 1.98 0.495 4 1 C4 1.99 4 2.98 4 4 C2.35 4.33 0.7 4.66 -1 5 C-1 2 -1 2 0 0 Z " fill="#FAFB4C" transform="translate(400,1052)"/>
<path d="M0 0 C0.8353125 0.556875 0.8353125 0.556875 1.6875 1.125 C-0.9525 2.115 -3.5925 3.105 -6.3125 4.125 C-6.6425 3.135 -6.9725 2.145 -7.3125 1.125 C-2.88173077 -1.09038462 -2.88173077 -1.09038462 0 0 Z " fill="#F7F735" transform="translate(347.3125,931.875)"/>
<path d="M0 0 C3.96 1.98 3.96 1.98 8 4 C7.01 4.66 6.02 5.32 5 6 C4.34 5.67 3.68 5.34 3 5 C3 4.34 3 3.68 3 3 C1.68 3 0.36 3 -1 3 C-0.67 2.01 -0.34 1.02 0 0 Z " fill="#B3AE30" transform="translate(576,699)"/>
<path d="M0 0 C0.66 0.33 1.32 0.66 2 1 C2.625 3.5625 2.625 3.5625 3 6 C1.68 5.34 0.36 4.68 -1 4 C-1 1 -1 1 0 0 Z " fill="#FBF93E" transform="translate(636,576)"/>
<path d="M0 0 C0.66 0.66 1.32 1.32 2 2 C-0.61941217 3.74627478 -2.03824877 4.38722388 -5 5 C-4.67 3.68 -4.34 2.36 -4 1 C-2.125 0.375 -2.125 0.375 0 0 Z " fill="#7E7F05" transform="translate(699,225)"/>
<path d="M0 0 C1.65 0 3.3 0 5 0 C5 0.33 5 0.66 5 1 C3.35 1 1.7 1 0 1 C0 0.67 0 0.34 0 0 Z " fill="#272605" transform="translate(632,923)"/>
<path d="M0 0 C2 1 2 1 2 1 Z " fill="#262204" transform="translate(593,640)"/>
<path d="" fill="#262306" transform="translate(0,0)"/>
<path d="" fill="#262306" transform="translate(0,0)"/>
<path d="" fill="#262604" transform="translate(0,0)"/>
<path d="" fill="#262604" transform="translate(0,0)"/>
<path d="" fill="#252604" transform="translate(0,0)"/>
<path d="" fill="#242704" transform="translate(0,0)"/>
<path d="" fill="#262606" transform="translate(0,0)"/>
<path d="" fill="#262508" transform="translate(0,0)"/>
<path d="" fill="#282506" transform="translate(0,0)"/>
</svg>
